<svg width="15" height="15" viewBox="0 0 15 15" fill="none" xmlns="http://www.w3.org/2000/svg">
<path d="M11.875 15H3.125C1.40188 15 0 13.5981 0 11.875V3.125C0 1.40188 1.40188 0 3.125 0H11.875C13.5981 0 15 1.40188 15 3.125V11.875C15 13.5981 13.5981 15 11.875 15ZM3.125 1.25C2.09125 1.25 1.25 2.09125 1.25 3.125V11.875C1.25 12.9088 2.09125 13.75 3.125 13.75H11.875C12.9088 13.75 13.75 12.9088 13.75 11.875V3.125C13.75 2.09125 12.9088 1.25 11.875 1.25H3.125ZM10 10.625C10 10.28 9.72062 10 9.375 10H6.38688C6.65313 9.76875 7.055 9.55 7.47563 9.32125C8.57125 8.72375 10.0731 7.90625 9.9975 6.11438C9.94125 4.78875 8.84438 3.75 7.50063 3.75C6.12188 3.75 5.00063 4.87125 5.00063 6.25C5.00063 6.595 5.28063 6.875 5.62563 6.875C5.97063 6.875 6.25063 6.595 6.25063 6.25C6.25063 5.56062 6.81125 5 7.50063 5C8.16188 5 8.72125 5.52375 8.74875 6.1675C8.78812 7.1125 8.06875 7.575 6.8775 8.22375C6.25875 8.56063 5.67437 8.87875 5.27812 9.34688C4.98125 9.69688 4.91625 10.1719 5.10813 10.5863C5.29813 10.9956 5.69687 11.25 6.14937 11.25H9.37563C9.72125 11.25 10 10.97 10 10.625Z" fill="white"/>
</svg>
