<svg width="20" height="16" viewBox="0 0 20 16" fill="none" xmlns="http://www.w3.org/2000/svg">
<g clip-path="url(#clip0_185_170)">
<path d="M16.3774 15.9441H7.62744C5.90432 15.9441 4.50244 14.5422 4.50244 12.8191V4.06909C4.50244 2.34597 5.90432 0.944092 7.62744 0.944092H16.3774C18.1006 0.944092 19.5024 2.34597 19.5024 4.06909V12.8191C19.5024 14.5422 18.1006 15.9441 16.3774 15.9441ZM7.62744 2.19409C6.59369 2.19409 5.75244 3.03534 5.75244 4.06909V12.8191C5.75244 13.8528 6.59369 14.6941 7.62744 14.6941H16.3774C17.4112 14.6941 18.2524 13.8528 18.2524 12.8191V4.06909C18.2524 3.03534 17.4112 2.19409 16.3774 2.19409H7.62744ZM12.6274 11.5691V5.31909C12.6274 5.06659 12.4749 4.83847 12.2418 4.74159C12.0074 4.64472 11.7393 4.69847 11.5606 4.87722L10.0331 6.40472C9.78869 6.64909 9.78869 7.04409 10.0331 7.28847C10.2774 7.53284 10.6724 7.53284 10.9168 7.28847L11.3774 6.82784V11.5691C11.3774 11.9141 11.6574 12.1941 12.0024 12.1941C12.3474 12.1941 12.6274 11.9141 12.6274 11.5691Z" fill="white"/>
</g>
<defs>
<clipPath id="clip0_185_170">
<rect width="19.234" height="14.5806" fill="white" transform="translate(0.502441 0.944092)"/>
</clipPath>
</defs>
</svg>
