<svg width="15" height="15" viewBox="0 0 15 15" fill="none" xmlns="http://www.w3.org/2000/svg">
<path d="M10 8.75C10 10.1288 8.87875 11.25 7.5 11.25H5.625C5.27938 11.25 5 10.97 5 10.625C5 10.28 5.27938 10 5.625 10H7.5C8.18938 10 8.75 9.43938 8.75 8.75C8.75 8.06062 8.18938 7.5 7.5 7.5H6.25C5.90438 7.5 5.625 7.22 5.625 6.875C5.625 6.53 5.90438 6.25 6.25 6.25H7.5C7.845 6.25 8.125 5.96937 8.125 5.625C8.125 5.28063 7.845 5 7.5 5H5.625C5.27938 5 5 4.72 5 4.375C5 4.03 5.27938 3.75 5.625 3.75H7.5C8.53375 3.75 9.375 4.59125 9.375 5.625C9.375 6.05 9.2275 6.43813 8.98812 6.75313C9.59875 7.20938 10 7.93125 10 8.75ZM15 3.125V11.875C15 13.5981 13.5981 15 11.875 15H3.125C1.40188 15 0 13.5981 0 11.875V3.125C0 1.40188 1.40188 0 3.125 0H11.875C13.5981 0 15 1.40188 15 3.125ZM13.75 3.125C13.75 2.09125 12.9088 1.25 11.875 1.25H3.125C2.09125 1.25 1.25 2.09125 1.25 3.125V11.875C1.25 12.9088 2.09125 13.75 3.125 13.75H11.875C12.9088 13.75 13.75 12.9088 13.75 11.875V3.125Z" fill="white"/>
</svg>
