<svg width="29" height="37" viewBox="0 0 29 37" fill="none" xmlns="http://www.w3.org/2000/svg">
<path d="M28.7254 12.4083C28.5919 12.1014 28.3751 11.8381 28.0996 11.6481C27.8241 11.4581 27.5009 11.3491 27.1666 11.3333H18.9608L21.2362 2.84083C21.3087 2.57508 21.3189 2.2962 21.2661 2.02586C21.2133 1.75552 21.0988 1.501 20.9317 1.28208C20.7647 1.06526 20.5504 0.889549 20.305 0.768426C20.0597 0.647302 19.7899 0.583984 19.5162 0.583326H6.97457C6.57008 0.569471 6.17281 0.692976 5.84747 0.933726C5.52213 1.17448 5.28789 1.51829 5.1829 1.90916L0.381234 19.8258C0.308765 20.0916 0.298546 20.3705 0.351371 20.6408C0.404196 20.9111 0.518642 21.1657 0.685816 21.3846C0.854565 21.6038 1.07179 21.781 1.32046 21.9022C1.56914 22.0234 1.84251 22.0854 2.11915 22.0833H9.0529L5.80998 34.1592C5.70373 34.5486 5.73208 34.9624 5.89043 35.3337C6.04879 35.705 6.32787 36.0119 6.68245 36.2047C7.03704 36.3976 7.44635 36.465 7.84407 36.3962C8.24179 36.3274 8.60461 36.1262 8.87373 35.8254L28.4029 14.3254C28.6354 14.0708 28.7896 13.7545 28.8468 13.4144C28.904 13.0744 28.8618 12.725 28.7254 12.4083ZM11.185 27.96L13.1021 20.7933C13.1745 20.5276 13.1848 20.2487 13.1319 19.9784C13.0791 19.708 12.9647 19.4535 12.7975 19.2346C12.6306 19.0178 12.4162 18.842 12.1709 18.7209C11.9255 18.5998 11.6557 18.5365 11.3821 18.5358H4.50207L8.33623 4.16666H17.1691L14.8937 12.6592C14.8207 12.9298 14.8122 13.2138 14.8688 13.4883C14.9255 13.7629 15.0458 14.0203 15.2201 14.2399C15.3944 14.4594 15.6177 14.6351 15.8722 14.7526C16.1267 14.8702 16.4052 14.9263 16.6854 14.9167H23.0816L11.185 27.96Z" fill="#45B2D7"/>
</svg>
