<svg width="37" height="37" viewBox="0 0 37 37" fill="none" xmlns="http://www.w3.org/2000/svg">
<path d="M20.4167 14.9167H16.8334C16.3582 14.9167 15.9025 15.1055 15.5665 15.4415C15.2305 15.7775 15.0417 16.2332 15.0417 16.7084C15.0417 17.1836 15.2305 17.6393 15.5665 17.9753C15.9025 18.3113 16.3582 18.5 16.8334 18.5H20.4167C20.8919 18.5 21.3476 18.3113 21.6836 17.9753C22.0196 17.6393 22.2084 17.1836 22.2084 16.7084C22.2084 16.2332 22.0196 15.7775 21.6836 15.4415C21.3476 15.1055 20.8919 14.9167 20.4167 14.9167ZM29.375 14.9167C29.3699 13.3319 28.8396 11.7934 27.867 10.5421C26.8945 9.29076 25.5346 8.39708 24 8.00087V5.95837C24 4.53284 23.4337 3.16568 22.4257 2.15768C21.4177 1.14967 20.0506 0.583374 18.625 0.583374C17.1995 0.583374 15.8323 1.14967 14.8243 2.15768C13.8163 3.16568 13.25 4.53284 13.25 5.95837V8.00087C11.7155 8.39708 10.3556 9.29076 9.38307 10.5421C8.41052 11.7934 7.88019 13.3319 7.87504 14.9167C5.97432 14.9167 4.15145 15.6718 2.80744 17.0158C1.46343 18.3598 0.708374 20.1827 0.708374 22.0834V27.4584C0.708374 28.8839 1.27467 30.2511 2.28268 31.2591C3.29068 32.2671 4.65784 32.8334 6.08337 32.8334H8.19754C8.56718 33.8789 9.25117 34.7845 10.1557 35.426C11.0603 36.0675 12.1411 36.4136 13.25 36.4167H24C25.109 36.4136 26.1898 36.0675 27.0944 35.426C27.9989 34.7845 28.6829 33.8789 29.0525 32.8334H31.1667C32.5922 32.8334 33.9594 32.2671 34.9674 31.2591C35.9754 30.2511 36.5417 28.8839 36.5417 27.4584V22.0834C36.5417 20.1827 35.7866 18.3598 34.4426 17.0158C33.0986 15.6718 31.2758 14.9167 29.375 14.9167ZM7.87504 29.25H6.08337C5.60819 29.25 5.15248 29.0613 4.81647 28.7253C4.48047 28.3893 4.29171 27.9336 4.29171 27.4584V22.0834C4.29171 21.133 4.66924 20.2216 5.34124 19.5496C6.01325 18.8776 6.92468 18.5 7.87504 18.5V29.25ZM16.8334 5.95837C16.8334 5.48319 17.0221 5.02748 17.3581 4.69147C17.6941 4.35547 18.1499 4.16671 18.625 4.16671C19.1002 4.16671 19.5559 4.35547 19.8919 4.69147C20.2279 5.02748 20.4167 5.48319 20.4167 5.95837V7.75004H16.8334V5.95837ZM25.7917 31.0417C25.7917 31.5169 25.6029 31.9726 25.2669 32.3086C24.9309 32.6446 24.4752 32.8334 24 32.8334H13.25C12.7749 32.8334 12.3191 32.6446 11.9831 32.3086C11.6471 31.9726 11.4584 31.5169 11.4584 31.0417V29.25C11.4584 28.2997 11.8359 27.3882 12.5079 26.7162C13.1799 26.0442 14.0913 25.6667 15.0417 25.6667H22.2084C23.1587 25.6667 24.0702 26.0442 24.7422 26.7162C25.4142 27.3882 25.7917 28.2997 25.7917 29.25V31.0417ZM25.7917 23.0867C24.7096 22.4353 23.4714 22.0887 22.2084 22.0834H15.0417C13.7787 22.0887 12.5405 22.4353 11.4584 23.0867V14.9167C11.4584 13.9663 11.8359 13.0549 12.5079 12.3829C13.1799 11.7109 14.0913 11.3334 15.0417 11.3334H22.2084C23.1587 11.3334 24.0702 11.7109 24.7422 12.3829C25.4142 13.0549 25.7917 13.9663 25.7917 14.9167V23.0867ZM32.9584 27.4584C32.9584 27.9336 32.7696 28.3893 32.4336 28.7253C32.0976 29.0613 31.6419 29.25 31.1667 29.25H29.375V18.5C30.3254 18.5 31.2368 18.8776 31.9088 19.5496C32.5808 20.2216 32.9584 21.133 32.9584 22.0834V27.4584Z" fill="#1BB5D9"/>
</svg>
