<svg width="41" height="41" viewBox="0 0 41 41" fill="none" xmlns="http://www.w3.org/2000/svg">
<path d="M18.8333 15.125H26C26.4751 15.125 26.9309 14.9362 27.2669 14.6002C27.6029 14.2642 27.7916 13.8085 27.7916 13.3333C27.7916 12.8581 27.6029 12.4024 27.2669 12.0664C26.9309 11.7304 26.4751 11.5416 26 11.5416H22.4166V9.74996C22.4166 9.27478 22.2279 8.81906 21.8919 8.48306C21.5559 8.14706 21.1001 7.95829 20.625 7.95829C20.1498 7.95829 19.6941 8.14706 19.3581 8.48306C19.0221 8.81906 18.8333 9.27478 18.8333 9.74996V11.5416C17.4078 11.5416 16.0406 12.1079 15.0326 13.1159C14.0246 14.1239 13.4583 15.4911 13.4583 16.9166C13.4583 18.3422 14.0246 19.7093 15.0326 20.7173C16.0406 21.7253 17.4078 22.2916 18.8333 22.2916H22.4166C22.8918 22.2916 23.3475 22.4804 23.6835 22.8164C24.0195 23.1524 24.2083 23.6081 24.2083 24.0833C24.2083 24.5585 24.0195 25.0142 23.6835 25.3502C23.3475 25.6862 22.8918 25.875 22.4166 25.875H15.25C14.7748 25.875 14.3191 26.0637 13.9831 26.3997C13.6471 26.7357 13.4583 27.1914 13.4583 27.6666C13.4583 28.1418 13.6471 28.5975 13.9831 28.9335C14.3191 29.2695 14.7748 29.4583 15.25 29.4583H18.8333V31.25C18.8333 31.7251 19.0221 32.1809 19.3581 32.5169C19.6941 32.8529 20.1498 33.0416 20.625 33.0416C21.1001 33.0416 21.5559 32.8529 21.8919 32.5169C22.2279 32.1809 22.4166 31.7251 22.4166 31.25V29.4583C23.8422 29.4583 25.2093 28.892 26.2173 27.884C27.2253 26.876 27.7916 25.5088 27.7916 24.0833C27.7916 22.6578 27.2253 21.2906 26.2173 20.2826C25.2093 19.2746 23.8422 18.7083 22.4166 18.7083H18.8333C18.3581 18.7083 17.9024 18.5195 17.5664 18.1835C17.2304 17.8475 17.0416 17.3918 17.0416 16.9166C17.0416 16.4414 17.2304 15.9857 17.5664 15.6497C17.9024 15.3137 18.3581 15.125 18.8333 15.125ZM20.625 0.791626C16.727 0.791626 12.9166 1.9475 9.6756 4.11308C6.43459 6.27866 3.90852 9.35668 2.41684 12.9579C0.925165 16.5591 0.534875 20.5218 1.29532 24.3449C2.05578 28.1679 3.93281 31.6796 6.68907 34.4359C9.44533 37.1921 12.957 39.0691 16.7801 39.8296C20.6031 40.59 24.5658 40.1998 28.167 38.7081C31.7682 37.2164 34.8463 34.6903 37.0118 31.4493C39.1774 28.2083 40.3333 24.3979 40.3333 20.5C40.3333 15.273 38.2569 10.2601 34.5609 6.56406C30.8648 2.86803 25.8519 0.791626 20.625 0.791626ZM20.625 36.625C17.4357 36.625 14.3181 35.6792 11.6664 33.9074C9.01466 32.1356 6.94787 29.6172 5.72741 26.6707C4.50695 23.7243 4.18762 20.4821 4.80981 17.3541C5.43199 14.2262 6.96775 11.353 9.22287 9.09786C11.478 6.84274 14.3512 5.30698 17.4791 4.6848C20.6071 4.06261 23.8493 4.38194 26.7957 5.6024C29.7422 6.82286 32.2606 8.88965 34.0324 11.5414C35.8043 14.1931 36.75 17.3107 36.75 20.5C36.75 24.7766 35.0511 28.878 32.0271 31.9021C29.003 34.9261 24.9016 36.625 20.625 36.625Z" fill="#1BB5D9"/>
</svg>

