<svg width="41" height="35" viewBox="0 0 41 35" fill="none" xmlns="http://www.w3.org/2000/svg">
<path d="M0.916748 18.3958V27.3541C0.916748 27.8293 1.10551 28.285 1.44152 28.621C1.77752 28.957 2.23324 29.1458 2.70841 29.1458H4.50008C4.50008 30.5713 5.06637 31.9385 6.07438 32.9465C7.08239 33.9545 8.44954 34.5208 9.87508 34.5208C11.3006 34.5208 12.6678 33.9545 13.6758 32.9465C14.6838 31.9385 15.2501 30.5713 15.2501 29.1458H26.0001C26.0001 30.5713 26.5664 31.9385 27.5744 32.9465C28.5824 33.9545 29.9495 34.5208 31.3751 34.5208C32.8006 34.5208 34.1678 33.9545 35.1758 32.9465C36.1838 31.9385 36.7501 30.5713 36.7501 29.1458H38.5417C39.0169 29.1458 39.4726 28.957 39.8087 28.621C40.1447 28.285 40.3334 27.8293 40.3334 27.3541V5.85413C40.3334 4.42859 39.7671 3.06144 38.7591 2.05343C37.7511 1.04542 36.384 0.479126 34.9584 0.479126H18.8334C17.4079 0.479126 16.0407 1.04542 15.0327 2.05343C14.0247 3.06144 13.4584 4.42859 13.4584 5.85413V9.43746H9.87508C9.04064 9.43746 8.21766 9.63174 7.47131 10.0049C6.72496 10.3781 6.07575 10.9199 5.57508 11.5875L1.27508 17.3208C1.22268 17.3987 1.18053 17.483 1.14966 17.5716L1.04216 17.7687C0.963091 17.9685 0.920609 18.1809 0.916748 18.3958ZM29.5834 29.1458C29.5834 28.7914 29.6885 28.445 29.8854 28.1504C30.0822 27.8558 30.3621 27.6261 30.6894 27.4905C31.0168 27.3549 31.3771 27.3194 31.7246 27.3886C32.0722 27.4577 32.3914 27.6283 32.642 27.8789C32.8926 28.1295 33.0632 28.4487 33.1323 28.7963C33.2015 29.1438 33.166 29.504 33.0304 29.8314C32.8948 30.1588 32.6651 30.4386 32.3705 30.6355C32.0758 30.8324 31.7294 30.9375 31.3751 30.9375C30.8999 30.9375 30.4442 30.7487 30.1082 30.4127C29.7722 30.0767 29.5834 29.621 29.5834 29.1458ZM17.0417 5.85413C17.0417 5.37895 17.2305 4.92323 17.5665 4.58723C17.9025 4.25122 18.3582 4.06246 18.8334 4.06246H34.9584C35.4336 4.06246 35.8893 4.25122 36.2253 4.58723C36.5613 4.92323 36.7501 5.37895 36.7501 5.85413V25.5625H35.3526C34.8488 25.0082 34.2347 24.5653 33.5498 24.2623C32.8648 23.9593 32.1241 23.8027 31.3751 23.8027C30.6261 23.8027 29.8853 23.9593 29.2004 24.2623C28.5154 24.5653 27.9014 25.0082 27.3976 25.5625H17.0417V5.85413ZM13.4584 16.6041H6.29175L8.44175 13.7375C8.60864 13.5149 8.82504 13.3343 9.07382 13.2099C9.32261 13.0856 9.59693 13.0208 9.87508 13.0208H13.4584V16.6041ZM8.08342 29.1458C8.08342 28.7914 8.18849 28.445 8.38537 28.1504C8.58224 27.8558 8.86206 27.6261 9.18944 27.4905C9.51682 27.3549 9.87707 27.3194 10.2246 27.3886C10.5722 27.4577 10.8914 27.6283 11.142 27.8789C11.3926 28.1295 11.5632 28.4487 11.6323 28.7963C11.7015 29.1438 11.666 29.504 11.5304 29.8314C11.3948 30.1588 11.1651 30.4386 10.8705 30.6355C10.5758 30.8324 10.2294 30.9375 9.87508 30.9375C9.3999 30.9375 8.94419 30.7487 8.60818 30.4127C8.27218 30.0767 8.08342 29.621 8.08342 29.1458ZM4.50008 20.1875H13.4584V25.1683C12.401 24.2233 11.013 23.7344 9.59682 23.8083C8.18061 23.8821 6.85097 24.5126 5.89758 25.5625H4.50008V20.1875Z" fill="#1BB5D9"/>
</svg>
