<svg width="37" height="37" viewBox="0 0 37 37" fill="none" xmlns="http://www.w3.org/2000/svg">
<path d="M22.2083 11.3334H23.9999C24.4751 11.3334 24.9308 11.1446 25.2668 10.8086C25.6028 10.4726 25.7916 10.0169 25.7916 9.54171C25.7916 9.06653 25.6028 8.61081 25.2668 8.27481C24.9308 7.93881 24.4751 7.75004 23.9999 7.75004H22.2083C21.7331 7.75004 21.2774 7.93881 20.9414 8.27481C20.6053 8.61081 20.4166 9.06653 20.4166 9.54171C20.4166 10.0169 20.6053 10.4726 20.9414 10.8086C21.2774 11.1446 21.7331 11.3334 22.2083 11.3334ZM22.2083 18.5H23.9999C24.4751 18.5 24.9308 18.3113 25.2668 17.9753C25.6028 17.6393 25.7916 17.1836 25.7916 16.7084C25.7916 16.2332 25.6028 15.7775 25.2668 15.4415C24.9308 15.1055 24.4751 14.9167 23.9999 14.9167H22.2083C21.7331 14.9167 21.2774 15.1055 20.9414 15.4415C20.6053 15.7775 20.4166 16.2332 20.4166 16.7084C20.4166 17.1836 20.6053 17.6393 20.9414 17.9753C21.2774 18.3113 21.7331 18.5 22.2083 18.5ZM13.2499 11.3334H15.0416C15.5168 11.3334 15.9725 11.1446 16.3085 10.8086C16.6445 10.4726 16.8333 10.0169 16.8333 9.54171C16.8333 9.06653 16.6445 8.61081 16.3085 8.27481C15.9725 7.93881 15.5168 7.75004 15.0416 7.75004H13.2499C12.7747 7.75004 12.319 7.93881 11.983 8.27481C11.647 8.61081 11.4583 9.06653 11.4583 9.54171C11.4583 10.0169 11.647 10.4726 11.983 10.8086C12.319 11.1446 12.7747 11.3334 13.2499 11.3334ZM13.2499 18.5H15.0416C15.5168 18.5 15.9725 18.3113 16.3085 17.9753C16.6445 17.6393 16.8333 17.1836 16.8333 16.7084C16.8333 16.2332 16.6445 15.7775 16.3085 15.4415C15.9725 15.1055 15.5168 14.9167 15.0416 14.9167H13.2499C12.7747 14.9167 12.319 15.1055 11.983 15.4415C11.647 15.7775 11.4583 16.2332 11.4583 16.7084C11.4583 17.1836 11.647 17.6393 11.983 17.9753C12.319 18.3113 12.7747 18.5 13.2499 18.5ZM34.7499 32.8334H32.9583V2.37504C32.9583 1.89986 32.7695 1.44414 32.4335 1.10814C32.0975 0.772138 31.6418 0.583374 31.1666 0.583374H6.08325C5.60807 0.583374 5.15236 0.772138 4.81635 1.10814C4.48035 1.44414 4.29159 1.89986 4.29159 2.37504V32.8334H2.49992C2.02474 32.8334 1.56902 33.0221 1.23302 33.3581C0.897016 33.6941 0.708252 34.1499 0.708252 34.625C0.708252 35.1002 0.897016 35.5559 1.23302 35.8919C1.56902 36.2279 2.02474 36.4167 2.49992 36.4167H34.7499C35.2251 36.4167 35.6808 36.2279 36.0168 35.8919C36.3528 35.5559 36.5416 35.1002 36.5416 34.625C36.5416 34.1499 36.3528 33.6941 36.0168 33.3581C35.6808 33.0221 35.2251 32.8334 34.7499 32.8334ZM20.4166 32.8334H16.8333V25.6667H20.4166V32.8334ZM29.3749 32.8334H23.9999V23.875C23.9999 23.3999 23.8112 22.9441 23.4752 22.6081C23.1391 22.2721 22.6834 22.0834 22.2083 22.0834H15.0416C14.5664 22.0834 14.1107 22.2721 13.7747 22.6081C13.4387 22.9441 13.2499 23.3999 13.2499 23.875V32.8334H7.87492V4.16671H29.3749V32.8334Z" fill="#1BB5D9"/>
</svg>
