<svg width="37" height="39" viewBox="0 0 37 39" fill="none" xmlns="http://www.w3.org/2000/svg">
<path d="M34.75 14.9167C34.9853 14.9167 35.2184 14.8704 35.4358 14.7804C35.6532 14.6904 35.8507 14.5584 36.0171 14.3921C36.1835 14.2257 36.3154 14.0281 36.4054 13.8107C36.4955 13.5933 36.5418 13.3603 36.5417 13.125V7.75002C36.5419 7.37408 36.4236 7.00764 36.2038 6.70269C35.9839 6.39774 35.6737 6.16975 35.3169 6.05109L19.1919 0.676086C18.8239 0.553609 18.4262 0.553609 18.0581 0.676086L1.93314 6.05109C1.57642 6.16975 1.26614 6.39774 1.04629 6.70269C0.826451 7.00764 0.70822 7.37408 0.708374 7.75002V13.125C0.708313 13.3603 0.754614 13.5933 0.844632 13.8107C0.93465 14.0281 1.06662 14.2257 1.233 14.3921C1.39939 14.5584 1.59692 14.6904 1.81433 14.7804C2.03173 14.8704 2.26474 14.9167 2.50004 14.9167H4.29171V27.7885C3.24669 28.1566 2.34124 28.8391 1.69964 29.7424C1.05805 30.6457 0.711783 31.7254 0.708374 32.8334V36.4167C0.708313 36.652 0.754614 36.885 0.844632 37.1024C0.93465 37.3198 1.06662 37.5173 1.233 37.6837C1.39939 37.8501 1.59692 37.9821 1.81433 38.0721C2.03173 38.1621 2.26474 38.2084 2.50004 38.2084H34.75C34.9853 38.2084 35.2184 38.1621 35.4358 38.0721C35.6532 37.9821 35.8507 37.8501 36.0171 37.6837C36.1835 37.5173 36.3154 37.3198 36.4054 37.1024C36.4955 36.885 36.5418 36.652 36.5417 36.4167V32.8334C36.5383 31.7254 36.192 30.6457 35.5504 29.7424C34.9088 28.8391 34.0034 28.1566 32.9584 27.7885V14.9167H34.75ZM32.9584 34.625H4.29171V32.8334C4.29218 32.3583 4.4811 31.9029 4.817 31.567C5.1529 31.2311 5.60834 31.0422 6.08337 31.0417H31.1667C31.6417 31.0422 32.0972 31.2311 32.4331 31.567C32.769 31.9029 32.9579 32.3583 32.9584 32.8334V34.625ZM7.87504 27.4584V14.9167H11.4584V27.4584H7.87504ZM15.0417 27.4584V14.9167H22.2084V27.4584H15.0417ZM25.7917 27.4584V14.9167H29.375V27.4584H25.7917ZM4.29171 11.3334V9.04127L18.625 4.2629L32.9584 9.04127V11.3334H4.29171Z" fill="#1BB5D9"/>
</svg>
