<svg width="29" height="37" viewBox="0 0 29 37" fill="none" xmlns="http://www.w3.org/2000/svg">
<path d="M15.6284 0.887973C15.3321 0.687707 14.9827 0.580688 14.625 0.580688C14.2674 0.580688 13.918 0.687707 13.6217 0.887973C13.0842 1.24631 0.739624 9.84631 0.739624 22.5313C0.739624 26.2139 2.20255 29.7458 4.80657 32.3498C7.41059 34.9538 10.9424 36.4167 14.625 36.4167C18.3077 36.4167 21.8395 34.9538 24.4435 32.3498C27.0475 29.7458 28.5105 26.2139 28.5105 22.5313C28.5105 9.63131 16.148 1.22839 15.6284 0.887973ZM14.625 32.8334C11.8942 32.8287 9.27659 31.7417 7.3456 29.8107C5.41461 27.8798 4.32769 25.2621 4.32296 22.5313C4.32296 13.573 11.8659 6.81839 14.625 4.61464C17.4021 6.78256 24.9271 13.573 24.9271 22.5313C24.9224 25.2621 23.8355 27.8798 21.9045 29.8107C19.9735 31.7417 17.3559 32.8287 14.625 32.8334Z" fill="#45B2D7"/>
</svg>
