<svg width="33" height="37" viewBox="0 0 33 37" fill="none" xmlns="http://www.w3.org/2000/svg">
<path d="M13.0417 29.25C13.5168 29.25 13.9726 29.0613 14.3086 28.7253C14.6446 28.3893 14.8333 27.9336 14.8333 27.4584V16.7084C14.8333 16.2332 14.6446 15.7775 14.3086 15.4415C13.9726 15.1055 13.5168 14.9167 13.0417 14.9167C12.5665 14.9167 12.1108 15.1055 11.7748 15.4415C11.4388 15.7775 11.25 16.2332 11.25 16.7084V27.4584C11.25 27.9336 11.4388 28.3893 11.7748 28.7253C12.1108 29.0613 12.5665 29.25 13.0417 29.25ZM30.9583 7.75004H23.7917V5.95837C23.7917 4.53284 23.2254 3.16568 22.2174 2.15768C21.2094 1.14967 19.8422 0.583374 18.4167 0.583374H14.8333C13.4078 0.583374 12.0406 1.14967 11.0326 2.15768C10.0246 3.16568 9.45833 4.53284 9.45833 5.95837V7.75004H2.29167C1.81649 7.75004 1.36077 7.93881 1.02477 8.27481C0.688764 8.61081 0.5 9.06653 0.5 9.54171C0.5 10.0169 0.688764 10.4726 1.02477 10.8086C1.36077 11.1446 1.81649 11.3334 2.29167 11.3334H4.08333V31.0417C4.08333 32.4672 4.64963 33.8344 5.65763 34.8424C6.66564 35.8504 8.03279 36.4167 9.45833 36.4167H23.7917C25.2172 36.4167 26.5844 35.8504 27.5924 34.8424C28.6004 33.8344 29.1667 32.4672 29.1667 31.0417V11.3334H30.9583C31.4335 11.3334 31.8892 11.1446 32.2252 10.8086C32.5612 10.4726 32.75 10.0169 32.75 9.54171C32.75 9.06653 32.5612 8.61081 32.2252 8.27481C31.8892 7.93881 31.4335 7.75004 30.9583 7.75004ZM13.0417 5.95837C13.0417 5.48319 13.2304 5.02748 13.5664 4.69147C13.9024 4.35547 14.3582 4.16671 14.8333 4.16671H18.4167C18.8918 4.16671 19.3476 4.35547 19.6836 4.69147C20.0196 5.02748 20.2083 5.48319 20.2083 5.95837V7.75004H13.0417V5.95837ZM25.5833 31.0417C25.5833 31.5169 25.3946 31.9726 25.0586 32.3086C24.7226 32.6446 24.2668 32.8334 23.7917 32.8334H9.45833C8.98315 32.8334 8.52744 32.6446 8.19143 32.3086C7.85543 31.9726 7.66667 31.5169 7.66667 31.0417V11.3334H25.5833V31.0417ZM20.2083 29.25C20.6835 29.25 21.1392 29.0613 21.4752 28.7253C21.8112 28.3893 22 27.9336 22 27.4584V16.7084C22 16.2332 21.8112 15.7775 21.4752 15.4415C21.1392 15.1055 20.6835 14.9167 20.2083 14.9167C19.7332 14.9167 19.2774 15.1055 18.9414 15.4415C18.6054 15.7775 18.4167 16.2332 18.4167 16.7084V27.4584C18.4167 27.9336 18.6054 28.3893 18.9414 28.7253C19.2774 29.0613 19.7332 29.25 20.2083 29.25Z" fill="#45B2D7"/>
</svg>
