<svg width="37" height="33" viewBox="0 0 37 33" fill="none" xmlns="http://www.w3.org/2000/svg">
<path d="M35.3233 4.04796L24.5733 0.464631H24.4478C24.3644 0.456248 24.2804 0.456248 24.197 0.464631H23.7849H23.552H23.4266L13.2499 3.95838L3.07326 0.464631C2.80382 0.375785 2.51713 0.352195 2.23679 0.395803C1.95645 0.439412 1.69048 0.548971 1.46076 0.715464C1.2292 0.880327 1.04019 1.09792 0.909345 1.35026C0.7785 1.60261 0.709572 1.88247 0.708258 2.16671V27.25C0.707288 27.6257 0.824392 27.9921 1.04302 28.2975C1.26164 28.6029 1.57073 28.8319 1.92659 28.9521L12.6766 32.5355C13.0375 32.6532 13.4265 32.6532 13.7874 32.5355L23.9999 29.1313L34.1766 32.625C34.3668 32.6509 34.5597 32.6509 34.7499 32.625C35.1245 32.6303 35.4902 32.5105 35.7891 32.2846C36.0206 32.1198 36.2097 31.9022 36.3405 31.6498C36.4714 31.3975 36.5403 31.1176 36.5416 30.8334V5.75005C36.5426 5.37444 36.4255 5.00802 36.2068 4.70259C35.9882 4.39716 35.6791 4.16816 35.3233 4.04796ZM11.4583 28.343L4.29159 25.96V4.65713L11.4583 7.04005V28.343ZM22.2083 25.96L15.0416 28.343V7.04005L22.2083 4.65713V25.96ZM32.9583 28.343L25.7916 25.96V4.65713L32.9583 7.04005V28.343Z" fill="#45B2D7"/>
</svg>
