<svg width="41" height="31" viewBox="0 0 41 31" fill="none" xmlns="http://www.w3.org/2000/svg">
<path d="M21.1625 15.8942C22.1185 15.0667 22.8852 14.0432 23.4108 12.8932C23.9363 11.7432 24.2083 10.4936 24.2083 9.22921C24.2083 6.85331 23.2645 4.57472 21.5845 2.89471C19.9044 1.2147 17.6259 0.270874 15.25 0.270874C12.8741 0.270874 10.5955 1.2147 8.91546 2.89471C7.23545 4.57472 6.29163 6.85331 6.29163 9.22921C6.29161 10.4936 6.5636 11.7432 7.08914 12.8932C7.61468 14.0432 8.38147 15.0667 9.33746 15.8942C6.82938 17.0299 4.70146 18.8639 3.20813 21.177C1.7148 23.4901 0.919263 26.1843 0.916626 28.9375C0.916626 29.4127 1.10539 29.8684 1.44139 30.2044C1.7774 30.5404 2.23311 30.7292 2.70829 30.7292C3.18347 30.7292 3.63919 30.5404 3.97519 30.2044C4.31119 29.8684 4.49996 29.4127 4.49996 28.9375C4.49996 26.0865 5.63255 23.3522 7.64856 21.3361C9.66458 19.3201 12.3989 18.1875 15.25 18.1875C18.101 18.1875 20.8353 19.3201 22.8514 21.3361C24.8674 23.3522 26 26.0865 26 28.9375C26 29.4127 26.1887 29.8684 26.5247 30.2044C26.8607 30.5404 27.3164 30.7292 27.7916 30.7292C28.2668 30.7292 28.7225 30.5404 29.0585 30.2044C29.3945 29.8684 29.5833 29.4127 29.5833 28.9375C29.5807 26.1843 28.7851 23.4901 27.2918 21.177C25.7985 18.8639 23.6705 17.0299 21.1625 15.8942ZM15.25 14.6042C14.1869 14.6042 13.1477 14.289 12.2638 13.6984C11.3799 13.1077 10.6909 12.2683 10.2841 11.2861C9.87729 10.304 9.77084 9.22325 9.97824 8.1806C10.1856 7.13795 10.6976 6.18022 11.4493 5.42851C12.201 4.6768 13.1587 4.16488 14.2013 3.95749C15.244 3.75009 16.3247 3.85653 17.3069 4.26336C18.289 4.67018 19.1285 5.3591 19.7191 6.24302C20.3097 7.12693 20.625 8.16613 20.625 9.22921C20.625 10.6547 20.0587 12.0219 19.0507 13.0299C18.0427 14.0379 16.6755 14.6042 15.25 14.6042ZM32.7008 15.1775C33.8474 13.8863 34.5964 12.2913 34.8576 10.5843C35.1188 8.87737 34.8811 7.1313 34.1731 5.55629C33.4651 3.98128 32.317 2.64447 30.867 1.70676C29.4169 0.769047 27.7268 0.270412 26 0.270874C25.5248 0.270874 25.0691 0.459639 24.7331 0.795641C24.3971 1.13164 24.2083 1.58736 24.2083 2.06254C24.2083 2.53772 24.3971 2.99344 24.7331 3.32944C25.0691 3.66544 25.5248 3.85421 26 3.85421C27.4255 3.85421 28.7927 4.4205 29.8007 5.42851C30.8087 6.43652 31.375 7.80367 31.375 9.22921C31.3724 10.1703 31.1229 11.0942 30.6512 11.9085C30.1796 12.7228 29.5024 13.3991 28.6875 13.8696C28.4218 14.0228 28.2 14.2417 28.0431 14.5052C27.8863 14.7687 27.7997 15.0681 27.7916 15.3746C27.7841 15.6788 27.8542 15.9798 27.9953 16.2494C28.1363 16.519 28.3437 16.7482 28.5979 16.9155L29.2966 17.3813L29.5295 17.5067C31.6892 18.531 33.5112 20.1512 34.7809 22.1764C36.0506 24.2015 36.7151 26.5473 36.6962 28.9375C36.6962 29.4127 36.885 29.8684 37.221 30.2044C37.557 30.5404 38.0127 30.7292 38.4879 30.7292C38.9631 30.7292 39.4188 30.5404 39.7548 30.2044C40.0908 29.8684 40.2795 29.4127 40.2795 28.9375C40.2942 26.1881 39.6056 23.4806 38.2791 21.0722C36.9526 18.6639 35.0324 16.6347 32.7008 15.1775Z" fill="#1BB5D9"/>
</svg>
